<mxfile host="app.diagrams.net" agent="Mozilla/5.0 (Macintosh; Intel Mac OS X 10_15_7) AppleWebKit/537.36 (KHTML, like Gecko) Chrome/131.0.0.0 Safari/537.36" version="25.0.3">
  <diagram name="Page-1" id="va1ebmtKpIITBE7amFJt">
    <mxGraphModel dx="1917" dy="1039" grid="1" gridSize="10" guides="1" tooltips="1" connect="1" arrows="1" fold="1" page="1" pageScale="1" pageWidth="850" pageHeight="1100" math="0" shadow="0">
      <root>
        <mxCell id="0" />
        <mxCell id="1" parent="0" />
        <mxCell id="ZEAUau7gzdTmWqWiUZ7r-2" value="" style="rounded=0;whiteSpace=wrap;html=1;fillColor=none;" vertex="1" parent="1">
          <mxGeometry x="400" y="940" width="200" height="140" as="geometry" />
        </mxCell>
        <mxCell id="ZEAUau7gzdTmWqWiUZ7r-3" value="" style="rounded=0;whiteSpace=wrap;html=1;fillColor=none;" vertex="1" parent="1">
          <mxGeometry x="40" y="700" width="200" height="140" as="geometry" />
        </mxCell>
        <mxCell id="ZEAUau7gzdTmWqWiUZ7r-5" value="" style="rounded=0;whiteSpace=wrap;html=1;fillColor=none;" vertex="1" parent="1">
          <mxGeometry x="520" y="700" width="200" height="140" as="geometry" />
        </mxCell>
        <mxCell id="ZEAUau7gzdTmWqWiUZ7r-6" value="" style="rounded=0;whiteSpace=wrap;html=1;fillColor=none;" vertex="1" parent="1">
          <mxGeometry x="280" y="880" width="200" height="20" as="geometry" />
        </mxCell>
        <mxCell id="ZEAUau7gzdTmWqWiUZ7r-7" value="" style="rounded=0;whiteSpace=wrap;html=1;fillColor=none;" vertex="1" parent="1">
          <mxGeometry x="520" y="880" width="200" height="20" as="geometry" />
        </mxCell>
        <mxCell id="ZEAUau7gzdTmWqWiUZ7r-9" value="" style="rounded=0;whiteSpace=wrap;html=1;fillColor=default;" vertex="1" parent="1">
          <mxGeometry x="150" y="460" width="200" height="200" as="geometry" />
        </mxCell>
        <mxCell id="ZEAUau7gzdTmWqWiUZ7r-22" value="" style="rounded=0;whiteSpace=wrap;html=1;fillColor=none;" vertex="1" parent="1">
          <mxGeometry x="400" y="20" width="200" height="140" as="geometry" />
        </mxCell>
        <mxCell id="ZEAUau7gzdTmWqWiUZ7r-23" value="pairwise dot product" style="text;html=1;align=center;verticalAlign=middle;whiteSpace=wrap;rounded=0;fillColor=none;" vertex="1" parent="1">
          <mxGeometry x="185" y="660" width="150" height="40" as="geometry" />
        </mxCell>
        <mxCell id="ZEAUau7gzdTmWqWiUZ7r-26" value="&lt;pre style=&quot;box-sizing: border-box; overflow: auto; font-size: 14px; padding: 1px 0px; margin-top: 0px; margin-bottom: 0px; line-height: inherit; word-break: break-all; overflow-wrap: break-word; background-color: rgb(255, 255, 255); border: 0px; border-radius: 0px; text-wrap-mode: wrap; vertical-align: baseline; text-align: left;&quot;&gt;v_proj&lt;/pre&gt;" style="text;html=1;align=center;verticalAlign=middle;whiteSpace=wrap;rounded=0;fillColor=none;" vertex="1" parent="1">
          <mxGeometry x="520" y="900" width="200" height="40" as="geometry" />
        </mxCell>
        <mxCell id="ZEAUau7gzdTmWqWiUZ7r-27" value="&lt;pre style=&quot;box-sizing: border-box; overflow: auto; font-size: 14px; padding: 1px 0px; margin-top: 0px; margin-bottom: 0px; line-height: inherit; word-break: break-all; overflow-wrap: break-word; background-color: rgb(255, 255, 255); border: 0px; border-radius: 0px; text-wrap-mode: wrap; vertical-align: baseline; text-align: left;&quot;&gt;k_proj&lt;/pre&gt;" style="text;html=1;align=center;verticalAlign=middle;whiteSpace=wrap;rounded=0;fillColor=none;" vertex="1" parent="1">
          <mxGeometry x="280" y="900" width="200" height="40" as="geometry" />
        </mxCell>
        <mxCell id="ZEAUau7gzdTmWqWiUZ7r-28" value="&lt;pre style=&quot;box-sizing: border-box; overflow: auto; font-size: 14px; padding: 1px 0px; margin-top: 0px; margin-bottom: 0px; line-height: inherit; word-break: break-all; overflow-wrap: break-word; background-color: rgb(255, 255, 255); border: 0px; border-radius: 0px; text-wrap-mode: wrap; vertical-align: baseline; text-align: left;&quot;&gt;q_proj&lt;/pre&gt;" style="text;html=1;align=center;verticalAlign=middle;whiteSpace=wrap;rounded=0;fillColor=none;" vertex="1" parent="1">
          <mxGeometry x="40" y="900" width="200" height="40" as="geometry" />
        </mxCell>
        <mxCell id="ZEAUau7gzdTmWqWiUZ7r-30" value="causal masking +&amp;nbsp;scaling + row-wise softmax" style="text;html=1;align=center;verticalAlign=middle;whiteSpace=wrap;rounded=0;fillColor=none;" vertex="1" parent="1">
          <mxGeometry x="120" y="400" width="280" height="40" as="geometry" />
        </mxCell>
        <mxCell id="ZEAUau7gzdTmWqWiUZ7r-32" value="copied" style="text;html=1;align=center;verticalAlign=middle;whiteSpace=wrap;rounded=0;fillColor=none;" vertex="1" parent="1">
          <mxGeometry x="300" y="840" width="150" height="40" as="geometry" />
        </mxCell>
        <mxCell id="ZEAUau7gzdTmWqWiUZ7r-33" value="copied" style="text;html=1;align=center;verticalAlign=middle;whiteSpace=wrap;rounded=0;fillColor=none;" vertex="1" parent="1">
          <mxGeometry x="545" y="840" width="150" height="40" as="geometry" />
        </mxCell>
        <mxCell id="ZEAUau7gzdTmWqWiUZ7r-36" value="matrix multiplication" style="text;html=1;align=center;verticalAlign=middle;whiteSpace=wrap;rounded=0;fillColor=none;" vertex="1" parent="1">
          <mxGeometry x="425" y="160" width="150" height="40" as="geometry" />
        </mxCell>
        <mxCell id="ZEAUau7gzdTmWqWiUZ7r-43" value="sequence length" style="text;html=1;align=center;verticalAlign=middle;whiteSpace=wrap;rounded=0;fillColor=none;" vertex="1" parent="1">
          <mxGeometry x="400" y="1070" width="200" height="10" as="geometry" />
        </mxCell>
        <mxCell id="ZEAUau7gzdTmWqWiUZ7r-45" value="embedding size" style="rounded=0;whiteSpace=wrap;html=1;rotation=-90;strokeColor=none;fillColor=none;" vertex="1" parent="1">
          <mxGeometry x="335" y="1005" width="140" height="10" as="geometry" />
        </mxCell>
        <mxCell id="ZEAUau7gzdTmWqWiUZ7r-49" value="embedding size" style="rounded=0;whiteSpace=wrap;html=1;rotation=-90;strokeColor=none;fillColor=none;" vertex="1" parent="1">
          <mxGeometry x="455" y="765" width="140" height="10" as="geometry" />
        </mxCell>
        <mxCell id="ZEAUau7gzdTmWqWiUZ7r-51" value="" style="rounded=0;whiteSpace=wrap;html=1;fillColor=default;" vertex="1" parent="1">
          <mxGeometry x="160" y="450" width="200" height="200" as="geometry" />
        </mxCell>
        <mxCell id="ZEAUau7gzdTmWqWiUZ7r-52" value="" style="rounded=0;whiteSpace=wrap;html=1;fillColor=default;" vertex="1" parent="1">
          <mxGeometry x="170" y="440" width="200" height="200" as="geometry" />
        </mxCell>
        <mxCell id="ZEAUau7gzdTmWqWiUZ7r-54" value="" style="rounded=0;whiteSpace=wrap;html=1;fillColor=none;" vertex="1" parent="1">
          <mxGeometry x="160" y="200" width="200" height="200" as="geometry" />
        </mxCell>
        <mxCell id="ZEAUau7gzdTmWqWiUZ7r-55" value="" style="endArrow=none;html=1;rounded=0;entryX=0;entryY=0;entryDx=0;entryDy=0;exitX=1;exitY=1;exitDx=0;exitDy=0;" edge="1" parent="1" source="ZEAUau7gzdTmWqWiUZ7r-54" target="ZEAUau7gzdTmWqWiUZ7r-54">
          <mxGeometry width="50" height="50" relative="1" as="geometry">
            <mxPoint x="400" y="280" as="sourcePoint" />
            <mxPoint x="450" y="230" as="targetPoint" />
          </mxGeometry>
        </mxCell>
        <mxCell id="ZEAUau7gzdTmWqWiUZ7r-62" value="" style="rounded=0;whiteSpace=wrap;html=1;dashed=1;fillColor=none;" vertex="1" parent="1">
          <mxGeometry x="40" y="700" width="200" height="10" as="geometry" />
        </mxCell>
        <mxCell id="ZEAUau7gzdTmWqWiUZ7r-65" value="sequence length" style="text;html=1;align=center;verticalAlign=middle;whiteSpace=wrap;rounded=0;fillColor=none;" vertex="1" parent="1">
          <mxGeometry x="520" y="830" width="200" height="10" as="geometry" />
        </mxCell>
        <mxCell id="ZEAUau7gzdTmWqWiUZ7r-66" value="sequence length" style="text;html=1;align=center;verticalAlign=middle;whiteSpace=wrap;rounded=0;fillColor=none;" vertex="1" parent="1">
          <mxGeometry x="40" y="830" width="200" height="10" as="geometry" />
        </mxCell>
        <mxCell id="ZEAUau7gzdTmWqWiUZ7r-67" value="sequence length" style="text;html=1;align=center;verticalAlign=middle;whiteSpace=wrap;rounded=0;fillColor=none;" vertex="1" parent="1">
          <mxGeometry x="170" y="630" width="200" height="10" as="geometry" />
        </mxCell>
        <mxCell id="ZEAUau7gzdTmWqWiUZ7r-68" value="sequence length" style="rounded=0;whiteSpace=wrap;html=1;rotation=-90;strokeColor=none;fillColor=none;" vertex="1" parent="1">
          <mxGeometry x="75" y="535" width="200" height="10" as="geometry" />
        </mxCell>
        <mxCell id="ZEAUau7gzdTmWqWiUZ7r-69" value="" style="rounded=0;whiteSpace=wrap;html=1;dashed=1;fillColor=none;" vertex="1" parent="1">
          <mxGeometry x="40" y="710" width="200" height="10" as="geometry" />
        </mxCell>
        <mxCell id="ZEAUau7gzdTmWqWiUZ7r-70" value="" style="rounded=0;whiteSpace=wrap;html=1;dashed=1;fillColor=none;" vertex="1" parent="1">
          <mxGeometry x="40" y="720" width="200" height="10" as="geometry" />
        </mxCell>
        <mxCell id="ZEAUau7gzdTmWqWiUZ7r-71" value="" style="rounded=0;whiteSpace=wrap;html=1;dashed=1;fillColor=none;" vertex="1" parent="1">
          <mxGeometry x="40" y="730" width="200" height="10" as="geometry" />
        </mxCell>
        <mxCell id="ZEAUau7gzdTmWqWiUZ7r-72" value="" style="rounded=0;whiteSpace=wrap;html=1;dashed=1;fillColor=none;" vertex="1" parent="1">
          <mxGeometry x="40" y="740" width="200" height="10" as="geometry" />
        </mxCell>
        <mxCell id="ZEAUau7gzdTmWqWiUZ7r-73" value="" style="rounded=0;whiteSpace=wrap;html=1;dashed=1;fillColor=none;" vertex="1" parent="1">
          <mxGeometry x="40" y="750" width="200" height="10" as="geometry" />
        </mxCell>
        <mxCell id="ZEAUau7gzdTmWqWiUZ7r-74" value="" style="rounded=0;whiteSpace=wrap;html=1;dashed=1;fillColor=none;" vertex="1" parent="1">
          <mxGeometry x="40" y="760" width="200" height="10" as="geometry" />
        </mxCell>
        <mxCell id="ZEAUau7gzdTmWqWiUZ7r-75" value="" style="rounded=0;whiteSpace=wrap;html=1;dashed=1;fillColor=none;" vertex="1" parent="1">
          <mxGeometry x="40" y="770" width="200" height="10" as="geometry" />
        </mxCell>
        <mxCell id="ZEAUau7gzdTmWqWiUZ7r-76" value="" style="rounded=0;whiteSpace=wrap;html=1;dashed=1;fillColor=none;" vertex="1" parent="1">
          <mxGeometry x="40" y="780" width="200" height="10" as="geometry" />
        </mxCell>
        <mxCell id="ZEAUau7gzdTmWqWiUZ7r-77" value="" style="rounded=0;whiteSpace=wrap;html=1;dashed=1;fillColor=none;" vertex="1" parent="1">
          <mxGeometry x="40" y="790" width="200" height="10" as="geometry" />
        </mxCell>
        <mxCell id="ZEAUau7gzdTmWqWiUZ7r-78" value="" style="rounded=0;whiteSpace=wrap;html=1;dashed=1;fillColor=none;" vertex="1" parent="1">
          <mxGeometry x="40" y="800" width="200" height="10" as="geometry" />
        </mxCell>
        <mxCell id="ZEAUau7gzdTmWqWiUZ7r-79" value="" style="rounded=0;whiteSpace=wrap;html=1;dashed=1;fillColor=none;" vertex="1" parent="1">
          <mxGeometry x="40" y="810" width="200" height="10" as="geometry" />
        </mxCell>
        <mxCell id="ZEAUau7gzdTmWqWiUZ7r-80" value="" style="rounded=0;whiteSpace=wrap;html=1;dashed=1;fillColor=none;" vertex="1" parent="1">
          <mxGeometry x="40" y="830" width="200" height="10" as="geometry" />
        </mxCell>
        <mxCell id="ZEAUau7gzdTmWqWiUZ7r-81" value="" style="rounded=0;whiteSpace=wrap;html=1;fillColor=none;" vertex="1" parent="1">
          <mxGeometry x="280" y="700" width="200" height="140" as="geometry" />
        </mxCell>
        <mxCell id="ZEAUau7gzdTmWqWiUZ7r-83" value="" style="rounded=0;whiteSpace=wrap;html=1;dashed=1;fillColor=none;" vertex="1" parent="1">
          <mxGeometry x="280" y="700" width="200" height="10" as="geometry" />
        </mxCell>
        <mxCell id="ZEAUau7gzdTmWqWiUZ7r-84" value="sequence length" style="text;html=1;align=center;verticalAlign=middle;whiteSpace=wrap;rounded=0;fillColor=none;" vertex="1" parent="1">
          <mxGeometry x="280" y="830" width="200" height="10" as="geometry" />
        </mxCell>
        <mxCell id="ZEAUau7gzdTmWqWiUZ7r-85" value="" style="rounded=0;whiteSpace=wrap;html=1;dashed=1;fillColor=none;" vertex="1" parent="1">
          <mxGeometry x="280" y="710" width="200" height="10" as="geometry" />
        </mxCell>
        <mxCell id="ZEAUau7gzdTmWqWiUZ7r-86" value="" style="rounded=0;whiteSpace=wrap;html=1;dashed=1;fillColor=none;" vertex="1" parent="1">
          <mxGeometry x="280" y="720" width="200" height="10" as="geometry" />
        </mxCell>
        <mxCell id="ZEAUau7gzdTmWqWiUZ7r-87" value="" style="rounded=0;whiteSpace=wrap;html=1;dashed=1;fillColor=none;" vertex="1" parent="1">
          <mxGeometry x="280" y="730" width="200" height="10" as="geometry" />
        </mxCell>
        <mxCell id="ZEAUau7gzdTmWqWiUZ7r-88" value="" style="rounded=0;whiteSpace=wrap;html=1;dashed=1;fillColor=none;" vertex="1" parent="1">
          <mxGeometry x="280" y="740" width="200" height="10" as="geometry" />
        </mxCell>
        <mxCell id="ZEAUau7gzdTmWqWiUZ7r-89" value="" style="rounded=0;whiteSpace=wrap;html=1;dashed=1;fillColor=none;" vertex="1" parent="1">
          <mxGeometry x="280" y="750" width="200" height="10" as="geometry" />
        </mxCell>
        <mxCell id="ZEAUau7gzdTmWqWiUZ7r-90" value="" style="rounded=0;whiteSpace=wrap;html=1;dashed=1;fillColor=none;" vertex="1" parent="1">
          <mxGeometry x="280" y="760" width="200" height="10" as="geometry" />
        </mxCell>
        <mxCell id="ZEAUau7gzdTmWqWiUZ7r-91" value="" style="rounded=0;whiteSpace=wrap;html=1;dashed=1;fillColor=none;" vertex="1" parent="1">
          <mxGeometry x="280" y="770" width="200" height="10" as="geometry" />
        </mxCell>
        <mxCell id="ZEAUau7gzdTmWqWiUZ7r-92" value="" style="rounded=0;whiteSpace=wrap;html=1;dashed=1;fillColor=none;" vertex="1" parent="1">
          <mxGeometry x="280" y="780" width="200" height="10" as="geometry" />
        </mxCell>
        <mxCell id="ZEAUau7gzdTmWqWiUZ7r-93" value="" style="rounded=0;whiteSpace=wrap;html=1;dashed=1;fillColor=none;" vertex="1" parent="1">
          <mxGeometry x="280" y="790" width="200" height="10" as="geometry" />
        </mxCell>
        <mxCell id="ZEAUau7gzdTmWqWiUZ7r-94" value="" style="rounded=0;whiteSpace=wrap;html=1;dashed=1;fillColor=none;" vertex="1" parent="1">
          <mxGeometry x="280" y="800" width="200" height="10" as="geometry" />
        </mxCell>
        <mxCell id="ZEAUau7gzdTmWqWiUZ7r-95" value="" style="rounded=0;whiteSpace=wrap;html=1;dashed=1;fillColor=none;" vertex="1" parent="1">
          <mxGeometry x="280" y="810" width="200" height="10" as="geometry" />
        </mxCell>
        <mxCell id="ZEAUau7gzdTmWqWiUZ7r-96" value="" style="rounded=0;whiteSpace=wrap;html=1;dashed=1;fillColor=none;" vertex="1" parent="1">
          <mxGeometry x="280" y="830" width="200" height="10" as="geometry" />
        </mxCell>
        <mxCell id="ZEAUau7gzdTmWqWiUZ7r-97" value="" style="rounded=0;whiteSpace=wrap;html=1;dashed=1;fillColor=none;" vertex="1" parent="1">
          <mxGeometry x="280" y="890" width="200" height="10" as="geometry" />
        </mxCell>
        <mxCell id="ZEAUau7gzdTmWqWiUZ7r-99" value="" style="rounded=0;whiteSpace=wrap;html=1;dashed=1;fillColor=none;" vertex="1" parent="1">
          <mxGeometry x="520" y="890" width="200" height="10" as="geometry" />
        </mxCell>
        <mxCell id="ZEAUau7gzdTmWqWiUZ7r-100" value="num heads" style="text;html=1;align=center;verticalAlign=middle;whiteSpace=wrap;rounded=0;fillColor=none;rotation=-45;" vertex="1" parent="1">
          <mxGeometry x="325" y="650" width="75" height="10" as="geometry" />
        </mxCell>
        <mxCell id="ZEAUau7gzdTmWqWiUZ7r-102" value="num heads x head dim" style="rounded=0;whiteSpace=wrap;html=1;rotation=-90;strokeColor=none;fillColor=none;" vertex="1" parent="1">
          <mxGeometry x="204" y="765" width="140" height="10" as="geometry" />
        </mxCell>
        <mxCell id="ZEAUau7gzdTmWqWiUZ7r-103" value="num heads x head dim" style="rounded=0;whiteSpace=wrap;html=1;rotation=-90;strokeColor=none;fillColor=none;" vertex="1" parent="1">
          <mxGeometry x="-36" y="765" width="140" height="10" as="geometry" />
        </mxCell>
        <mxCell id="ZEAUau7gzdTmWqWiUZ7r-105" value="sequence length" style="rounded=0;whiteSpace=wrap;html=1;rotation=-90;strokeColor=none;fillColor=none;" vertex="1" parent="1">
          <mxGeometry x="65" y="295" width="200" height="10" as="geometry" />
        </mxCell>
        <mxCell id="ZEAUau7gzdTmWqWiUZ7r-106" value="sequence length" style="text;html=1;align=center;verticalAlign=middle;whiteSpace=wrap;rounded=0;fillColor=none;" vertex="1" parent="1">
          <mxGeometry x="160" y="390" width="200" height="10" as="geometry" />
        </mxCell>
        <mxCell id="ZEAUau7gzdTmWqWiUZ7r-107" value="sequence length" style="text;html=1;align=center;verticalAlign=middle;whiteSpace=wrap;rounded=0;fillColor=none;" vertex="1" parent="1">
          <mxGeometry x="400" y="150" width="200" height="10" as="geometry" />
        </mxCell>
        <mxCell id="ZEAUau7gzdTmWqWiUZ7r-108" value="embedding size" style="rounded=0;whiteSpace=wrap;html=1;rotation=-90;strokeColor=none;fillColor=none;" vertex="1" parent="1">
          <mxGeometry x="335" y="85" width="140" height="10" as="geometry" />
        </mxCell>
        <mxCell id="ZEAUau7gzdTmWqWiUZ7r-112" value="&lt;pre style=&quot;box-sizing: border-box; overflow: auto; font-size: 14px; padding: 1px 0px; margin-top: 0px; margin-bottom: 0px; line-height: inherit; word-break: break-all; overflow-wrap: break-word; background-color: rgb(255, 255, 255); border: 0px; border-radius: 0px; text-wrap-mode: wrap; vertical-align: baseline; text-align: left;&quot;&gt; hidden_states &lt;/pre&gt;" style="text;html=1;align=center;verticalAlign=middle;whiteSpace=wrap;rounded=0;fillColor=none;" vertex="1" parent="1">
          <mxGeometry x="400" y="990" width="200" height="40" as="geometry" />
        </mxCell>
        <mxCell id="ZEAUau7gzdTmWqWiUZ7r-113" value="&lt;pre style=&quot;box-sizing: border-box; overflow: auto; font-size: 14px; padding: 1px 0px; margin-top: 0px; margin-bottom: 0px; line-height: inherit; word-break: break-all; overflow-wrap: break-word; background-color: rgb(255, 255, 255); border: 0px; border-radius: 0px; text-wrap-mode: wrap; vertical-align: baseline; text-align: left;&quot;&gt; key_states &lt;/pre&gt;" style="text;html=1;align=center;verticalAlign=middle;whiteSpace=wrap;rounded=0;fillColor=none;" vertex="1" parent="1">
          <mxGeometry x="520" y="750" width="200" height="40" as="geometry" />
        </mxCell>
        <mxCell id="ZEAUau7gzdTmWqWiUZ7r-115" value="&lt;pre style=&quot;box-sizing: border-box; overflow: auto; font-size: 14px; padding: 1px 0px; margin-top: 0px; margin-bottom: 0px; line-height: inherit; word-break: break-all; overflow-wrap: break-word; background-color: rgb(255, 255, 255); border: 0px; border-radius: 0px; text-wrap-mode: wrap; vertical-align: baseline; text-align: left;&quot;&gt; value_states &lt;/pre&gt;" style="text;html=1;align=center;verticalAlign=middle;whiteSpace=wrap;rounded=0;fillColor=none;" vertex="1" parent="1">
          <mxGeometry x="280" y="750" width="200" height="40" as="geometry" />
        </mxCell>
        <mxCell id="ZEAUau7gzdTmWqWiUZ7r-116" value="&lt;pre style=&quot;box-sizing: border-box; overflow: auto; font-size: 14px; padding: 1px 0px; margin-top: 0px; margin-bottom: 0px; line-height: inherit; word-break: break-all; overflow-wrap: break-word; background-color: rgb(255, 255, 255); border: 0px; border-radius: 0px; text-wrap-mode: wrap; vertical-align: baseline; text-align: left;&quot;&gt; query_states &lt;/pre&gt;" style="text;html=1;align=center;verticalAlign=middle;whiteSpace=wrap;rounded=0;fillColor=none;" vertex="1" parent="1">
          <mxGeometry x="40" y="750" width="200" height="40" as="geometry" />
        </mxCell>
        <mxCell id="ZEAUau7gzdTmWqWiUZ7r-117" value="&lt;pre style=&quot;box-sizing: border-box; overflow: auto; font-size: 14px; padding: 1px 0px; margin-top: 0px; margin-bottom: 0px; line-height: inherit; word-break: break-all; overflow-wrap: break-word; background-color: rgb(255, 255, 255); border: 0px; border-radius: 0px; text-wrap-mode: wrap; vertical-align: baseline; text-align: left;&quot;&gt;attn_weight&lt;/pre&gt;" style="text;html=1;align=center;verticalAlign=middle;whiteSpace=wrap;rounded=0;fillColor=none;" vertex="1" parent="1">
          <mxGeometry x="170" y="520" width="200" height="40" as="geometry" />
        </mxCell>
        <mxCell id="ZEAUau7gzdTmWqWiUZ7r-118" value="&lt;pre style=&quot;box-sizing: border-box; overflow: auto; font-size: 14px; padding: 1px 0px; margin-top: 0px; margin-bottom: 0px; line-height: inherit; word-break: break-all; overflow-wrap: break-word; background-color: rgb(255, 255, 255); border: 0px; border-radius: 0px; text-wrap-mode: wrap; vertical-align: baseline; text-align: left;&quot;&gt;attn_weight&lt;/pre&gt;" style="text;html=1;align=center;verticalAlign=middle;whiteSpace=wrap;rounded=0;fillColor=none;" vertex="1" parent="1">
          <mxGeometry x="160" y="280" width="200" height="40" as="geometry" />
        </mxCell>
        <mxCell id="ZEAUau7gzdTmWqWiUZ7r-119" value="&lt;pre style=&quot;box-sizing: border-box; overflow: auto; font-size: 14px; padding: 1px 0px; margin-top: 0px; margin-bottom: 0px; line-height: inherit; word-break: break-all; overflow-wrap: break-word; background-color: rgb(255, 255, 255); border: 0px; border-radius: 0px; text-wrap-mode: wrap; vertical-align: baseline; text-align: left;&quot;&gt;hidden_state&lt;/pre&gt;" style="text;html=1;align=center;verticalAlign=middle;whiteSpace=wrap;rounded=0;fillColor=none;" vertex="1" parent="1">
          <mxGeometry x="400" y="70" width="200" height="40" as="geometry" />
        </mxCell>
      </root>
    </mxGraphModel>
  </diagram>
</mxfile>
